<svg width="24" height="24" viewBox="0 0 24 24" fill="none" xmlns="http://www.w3.org/2000/svg">
<rect width="24" height="24" rx="4" fill="#1DA1F2"/>
<path d="M9.5652 17.2076C14.5182 17.2076 17.2268 13.143 17.2268 9.61826C17.2268 9.50283 17.2244 9.38791 17.2192 9.27348C17.7462 8.89575 18.201 8.42803 18.5624 7.89225C18.0799 8.10472 17.5607 8.24773 17.0161 8.31221C17.572 7.98195 17.9988 7.45961 18.2002 6.83688C17.6715 7.14751 17.0933 7.36648 16.4903 7.48434C15.9989 6.96588 15.2993 6.6416 14.5247 6.6416C13.0376 6.6416 11.8318 7.83615 11.8318 9.3086C11.8318 9.51792 11.8554 9.72153 11.9016 9.9168C9.66359 9.80525 7.67909 8.74385 6.35094 7.12992C6.11174 7.53695 5.98591 7.99959 5.98632 8.47057C5.98632 9.39599 6.46171 10.2129 7.18462 10.6909C6.75701 10.678 6.33879 10.5635 5.96509 10.3573C5.96469 10.3685 5.96469 10.3794 5.96469 10.3913C5.96469 11.6831 6.89288 12.7617 8.12501 13.0061C7.8936 13.0685 7.65481 13.1001 7.41496 13.1C7.24511 13.0998 7.07565 13.0837 6.90887 13.0518C7.2517 14.1117 8.24578 14.8829 9.42435 14.9044C8.50272 15.62 7.34172 16.0462 6.07991 16.0462C5.86282 16.0462 5.64838 16.034 5.43759 16.0093C6.62933 16.766 8.04442 17.2075 9.56533 17.2075" fill="white"/>
</svg>
